<svg xmlns="http://www.w3.org/2000/svg" viewBox="0 0 53.38 68.02"><defs><style>.cls-1{fill:#969696;}</style></defs><title>Asset 2</title><g id="Layer_2" data-name="Layer 2"><g id="Layer_1-2" data-name="Layer 1"><path class="cls-1" d="M53.35,67.31c-.88-21.8-9.6-29-11.74-30.46l-.54.47-.26.22A24.15,24.15,0,0,1,30,42.28c-.51.07-1,.15-1.55.19s-.88,0-1.33,0A21.22,21.22,0,0,1,22.34,42a25.77,25.77,0,0,1-9.58-5c-.1-.09-.21-.17-.3-.26l-.17.15C-.18,47.68,0,66.55,0,67.35V68H53.38Z"/><path class="cls-1" d="M27.19,40.09h0a20,20,0,1,0-20.06-20A19.9,19.9,0,0,0,27.2,40.09Z"/></g></g></svg>