<svg xmlns="http://www.w3.org/2000/svg" viewBox="0 0 54.74 68.09"><defs><style>.cls-1{fill:#969696;}</style></defs><title>Asset 3</title><g id="Layer_2" data-name="Layer 2"><g id="Layer_1-2" data-name="Layer 1"><path class="cls-1" d="M48.73,27.24H47.11V19.9a19.74,19.74,0,1,0-39.48,0v7.34H6a6,6,0,0,0-6,6.05V62a6,6,0,0,0,6,6.06H48.73a6,6,0,0,0,6-6.06V33.29A6,6,0,0,0,48.73,27.24ZM29.88,48.06v3.75a1,1,0,0,1-1,1h-3a1,1,0,0,1-1-1V48.06a4.83,4.83,0,1,1,5,0Zm8.57-20.82H16.29V19.9a11.08,11.08,0,1,1,22.16,0Z"/></g></g></svg>